<?xml version="1.0" encoding="utf-8"?>
<!-- Generator: Adobe Illustrator 16.0.0, SVG Export Plug-In . SVG Version: 6.00 Build 0)  -->
<!DOCTYPE svg PUBLIC "-//W3C//DTD SVG 1.1//EN" "http://www.w3.org/Graphics/SVG/1.1/DTD/svg11.dtd">
<svg version="1.1" xmlns="http://www.w3.org/2000/svg" xmlns:xlink="http://www.w3.org/1999/xlink" x="0px" y="0px"
	 width="3413.317px" height="1859.185px" viewBox="0 0 3413.317 1859.185" enable-background="new 0 0 3413.317 1859.185"
	 xml:space="preserve">
<g id="Layer_1_xA0_Image_1_">
	<path fill-rule="evenodd" clip-rule="evenodd" d="M148.838,1763.643c18.57-7.143,29.579-44.906,42.313-59.816
		c19.504-22.838,43.854-41.425,66.106-61.451c40.605-36.542,90.673-65.507,141.234-86.916
		c60.28-25.525,121.004-57.472,177.864-89.785c24.679-14.025,43.375-33.447,69.76-44.982c8.042-3.516,59.649-45.018,64.57-42.025
		c13.723,8.346-36.177,60.321-36.262,76.127c-0.059,11.021,11.497,92.991,30.728,84.967c6.328-2.639,3.721-18.196,7.813-24.505
		c6.638,27.324,2.511,43.32,22.344,64.498c28.291,30.208,58.184,52.427,97.048,67.098c81.592,30.798,165.006,5.49,240.694-29.538
		c60.275-27.901,113.807-67.395,157.225-118.208c25.041-29.308,45.876-61.478,59.974-97.455
		c7.614-19.431-58.074-27.788-61.976-42.435c-1.976-7.4,55.155-3.275,59.17-2.292c21.305,5.213,34.9,37.579,50.669,39.365
		c46.069,5.21,77.063,40.812,119.266,57.676c48.8,19.502,89.616,47.839,135.928,71.604
		c40.378,20.722,95.998,48.622,118.841,89.264c20.589,36.623,59.79,63.351,80.405,101.723
		c23.6,43.933-6.72,101.987-11.925,148.175c-4.351,38.618-14.7,78.221-26.142,115.309c-10.451,33.876-49.13,20.263-81.223,20.263
		c-41.651,0-83.302,0-124.953,0c-274.896,0-549.792,0-824.688,0c-133.283,0-266.566,0-399.849,0c-33.321,0-66.642,0-99.962,0
		c-16.66,0-33.32,0-49.981,0c-24.552,8.33-32.882,0.438-24.991-23.675C148.838,1905.632,148.838,1834.637,148.838,1763.643
		C156.073,1760.859,148.838,1842.51,148.838,1763.643z"/>
	<path fill-rule="evenodd" clip-rule="evenodd" d="M1032.798,1387.257c-6.213,1.905-51.883,27.408-57.018,20.882
		c-3.372-4.285-79.111-11.035-89.546-13.117c-21.617-4.311-33.113-13.624-52.2-24.215c-9.179-5.097-16.085-12.621-25.605-17.229
		c-9.432-4.567-7.449,17.879-10.536,20.223c-4.407-6.555-3.148-16.137-1.291-24.136c3.359-14.463-15.806-19.739-18.096-29.985
		c-6.178-27.632-48.891-60.265-45.809-92.46c8.127,2.102,24.456,46.137,33.8,42.344c19.8-8.044-8.102-31.879,4.51-38.429
		c8.682-4.516,34.515,45.534,30.748,53.13c-11.893,24.138,33.773,45.415,47.031,55.503
		c42.265,32.144,158.718,69.947,178.292-14.241c1.38,3.874,4.372,5.809,8.974,5.808c8.989-3.517-0.395-13.169,15.146-4.535
		c-0.272-6.671-9.006-17.692-4.389-23.239c2.112,1.523,4.466,2.322,7.063,2.396c-12.507-28.756,63.383-76.193,64.729-110.773
		c0.575-14.904,40.277-28.558,50.996-34.843c12.398-7.27,31.098-46.652,34.537-68.648c-2.946-0.805-4.721,6.585-7.805,3.924
		c1.298,1.121,1.704-24.687-2.89-31.011c-6.004-8.232,8.792-16.454,12.177-21.275c-3.026-0.556-5.914-1.538-8.661-2.948
		c21.556-15,9.037-58.797,23.594-76.972c16.103-20.101-7.632-88.432-7.43-88.618c-0.473-8.528,2.964-38.84-0.868-43.137
		c-4.756,5.029-14.304,53.537-24.792,18.239c-1.136-3.822-19.066-32.13-22.045-32.949c-30.543-8.412-59.686-14.587-93.491-13.74
		c-12.353,0.31-31.995-0.7-42.534-8.562c-10.172-7.587-14.6-21.278,2.02-21.222c34.798,0.107,77.297,8.258,106.274-2.946
		c31.302-12.088,58.562,51.369,75.088,57.916c3.288,1.307-13.756-107.472-13.643-109.909c2.642-56.956,2.28-111.896-34.854-155.71
		c-16.087-18.989-40.948-1.1-57.117-6.044c-2.804-0.857-12.125-19.057-15.245-11.362c-1.301,3.206-19.113,9.817-20.677,6.146
		c-19.173-44.997-81.533,18.74-99.138-6.101c-11.554,19.499-9.158,17.905-22.96,6.325c-3.735,3.441-5.081,7.613-4.037,12.517
		c-21.829-15.731-92.205-67.828-108.542-29.008c-3.829-4.55-20.595-5.445-29.482-6.231c-11.351-1.004-19.854,12.742-31.037,6.577
		c-3.854-2.124-26.062-11.486-31.756-6.353c-43.499,39.202-44.401,99.255-41.284,152.726
		c1.099,18.703-17.222,50.684-24.305,67.412c-13.583,32.078-5.892,72.453-9.778,106.967
		c-1.868,16.59,15.057,199.833,10.839,200.667c-14.423,2.85-54.208-384.89-49.367-422.177
		c18.096-139.438,160.224-228.391,290.623-249.96c129.127-21.359,300.761,82.894,343.89,205.168
		c13.759,39.013,17.56,73.86,16.765,115.132c-0.727,37.778-13.844,89.383-8.574,125.282c0.914,6.236-26.928,72.935-6.804,69.445
		c-0.914,10.461-39.024,59.675-15.206,72.305c2.318,1.229,6.79-3.243,9.263-3.243c3.081,15.025-14.808,62.259-16.476,80.46
		c-0.725,7.906-14.687,7.939-17.864,17.473c-5.827,17.481-11.223,35.102-16.436,52.774c-8.693,29.472-17.292,57.28-28.555,85.889
		c-13.951,35.442-29.863,52.14-51.104,83.721c-9.357,13.912-63.326,85.392-62.422,86.022
		c-3.92,23.129-30.978,22.419-46.213,29.077C1022.906,1406.967,1043.948,1370.266,1032.798,1387.257
		C1025.236,1389.575,1034.411,1384.799,1032.798,1387.257z M1189.922,806.107c-6.631,5.719,4.549,11.253,9.159,11.874
		C1197.304,812.819,1193.977,809.644,1189.922,806.107C1189.51,806.463,1190.902,806.962,1189.922,806.107z M1150.339,1192.482
		c-4.075,1.502-7.305,6.273-6.821,10.074C1149.291,1200.325,1150.461,1198.598,1150.339,1192.482z"/>
	<path fill-rule="evenodd" clip-rule="evenodd" d="M912.367,1070.77c1.527,0.986,3.236,1.775,4.55,2.992
		c6.335,5.861,13.611,8.289,22.224,6.881c4.521-0.738,9.109-1.086,13.678-1.494c7.203-0.641,11.83-5.54,16.752-9.965
		c7.645-6.872,15.157-13.83,26.607-13.328c2.45,0.108,4.94-1.447,7.461-2.029c4.275-0.986,8.56-2.113,12.903-2.509
		c1.247-0.113,2.705,2.081,4.066,3.217c-1.464,1.724-2.863,4.877-4.401,4.946c-13.457,0.607-23.341,8.26-33.172,16.073
		c-2.287,1.818-1.816,3.601,1.196,4.015c3.215,0.443,6.548,0.262,9.68,0.992c1.64,0.383,3.161,1.954,4.377,3.31
		c2.161,2.407,3.953,5.142,6.071,7.591c3.955,4.575,7.9,9.173,12.103,13.516c3.288,3.396,6.612,6.477,8.446,11.176
		c0.785,2.01,4.608,2.777,6.966,4.247c1.959,1.223,4.308,2.28,5.572,4.06c2.394,3.367,6.299,5.362,10.202,3.528
		c3.324-1.562,5.62-0.513,8.399,1.128c2.342,1.381,5.221,1.818,7.782,2.869c2.078,0.852,4.198,1.767,6.008,3.061
		c2.545,1.821,4.554,2.363,6.418-0.797c1.856-3.146,4.097-2.997,6.051-0.152c2.023,2.943,3.805,6.057,5.64,9.126
		c1.032,1.727,1.71,3.738,3.018,5.201c1.015,1.135,2.758,1.619,4.177,2.392c0.764-1.507,1.53-3.014,2.292-4.522
		c0.59-1.167,1.176-2.337,1.764-3.505c1.063,0.84,2.638,1.473,3.084,2.566c0.963,2.357,1.576,4.922,1.91,7.457
		c0.501,3.797,1.476,6.903,5.607,8.384c2.962,1.062,3.834,2.858,2.945,6.669c-1.001,4.29,0.431,9.117,0.535,13.717
		c0.034,1.481-0.304,3.632-1.295,4.367c-5.721,4.247-11.884,7.908-17.515,12.263c-5.362,4.146-10.824,2.471-16.401,1.323
		c-0.501-0.104-1.212-0.594-1.313-1.024c-1.002-4.282-4.718-5.468-7.804-7.742c-5.001-3.686-10.315-5.051-16.156-4.654
		c-3.808,0.258-7.04-0.342-10.19-2.567c-1.953-1.379-4.369-2.126-6.621-3.052c-2.748-1.129-4.802-0.479-5.768,2.543
		c-0.044,0.136-0.084,0.324-0.188,0.383c-4.468,2.59-8.825,5.436-13.518,7.524c-0.967,0.431-3.386-1.756-4.794-3.096
		c-2.735-2.604-5.125-5.351-9.573-4.961c-1.245,0.109-2.554-2.104-4.046-2.778c-1.427-0.646-3.776-1.479-4.591-0.824
		c-2.427,1.949-4.362,1.459-6.737,0.215c-1.468-0.77-3.559-1.831-4.778-1.327c-4.45,1.838-8.771,0.365-13.157,0.414
		c-10.172,0.11-20.334,0.928-30.507,1.22c-2.988,0.084-6.02-0.508-8.993-1.016c-7.236-1.235-14.595-2.093-21.629-4.078
		c-5.797-1.636-11.199-4.672-16.776-7.087c0.167-0.615,0.333-1.231,0.501-1.848c1.865,0.151,3.73,0.291,5.594,0.454
		c8.299,0.73,16.598,1.463,24.896,2.204c2.008,0.181,4.295-0.156,5.967,0.698c6.139,3.138,12.137,0.358,18.189,0.112
		c2.273-0.092,4.564-0.104,6.833,0.055c5.289,0.37,10.565,1.134,15.853,1.188c2.323,0.022,4.848-0.947,6.952-2.078
		c4.381-2.353,4.1-7.328,0.027-10.087c-7.126-4.827-14.178-9.794-20.962-15.087c-3.818-2.979-8.081-4.119-12.503-3.768
		c-10.45,0.83-20.873,2.085-31.269,3.453c-5.822,0.767-11.979,1.281-15.116,7.6c-0.181,0.364-0.636,0.92-0.881,0.879
		c-6.618-1.076-7.113,7.382-12.652,8.2c-0.707,0.104-0.835,2.796-1.625,4.04c-0.773,1.22-2.27,3.164-3.063,2.994
		c-5.253-1.129-9.496,2.169-14.222,2.762c-7.602,0.955-15.33,0.933-23.007,1.216c-1.41,0.052-2.892-0.765-4.246-0.558
		c-3.862,0.589-6.755-0.537-9.795-3.11c-1.734-1.467-5.856-2.401-7.428-1.357c-5.443,3.618-11.135,2.439-16.801,2.188
		c-2.852-0.126-4.992,0.335-7.531,2.038c-2.072,1.39-5.701,1.297-8.396,0.72c-3.755-0.805-7.572-2.206-10.828-4.217
		c-3.193-1.972-5.805-4.938-8.508-7.63c-2.22-2.212-4.361-4.547-6.205-7.07c-0.709-0.971-1.061-2.852-0.611-3.905
		c2.017-4.722,4.383-9.294,6.618-13.922c0.493-1.021,0.697-2.362,1.48-3.029c6.093-5.18,12.214-10.334,18.525-15.241
		c1.468-1.143,3.757-1.963,5.562-1.795c5.004,0.47,9.928,1.748,14.927,2.322c7.566,0.868,15.242,3.306,22.032-3.217
		c3.386-3.251,4.674-2.42,6.744,1.857c0.402,0.832,1.75,1.884,2.494,1.768c6.035-0.949,11.725-2.74,15.619-7.958
		c4.135-5.541,7.464-12.044,12.619-16.37c5.726-4.808,12.867-8.249,19.875-11.094c4.379-1.778,9.658-1.311,14.521-1.939
		c2.872-0.371,5.017,0.166,6.312,3.171c0.56,1.298,1.939,2.414,3.204,3.2c2.775,1.723,5.655,3.309,8.619,4.676
		c0.946,0.436,2.291,0.006,3.453-0.028c-0.073-1.045,0.22-2.331-0.282-3.095c-3.423-5.221-7.015-10.33-10.551-15.476
		C912.031,1071.283,912.199,1071.026,912.367,1070.77z"/>
	<path fill-rule="evenodd" clip-rule="evenodd" d="M759.431,760.669c1.339,0.081,1.653,0.029,1.912,0.125
		c5.884,2.199,12.586,3.312,17.419,6.924c5.323,3.979,11.014,5.722,16.833,5.541c15.791-0.492,30.706,5.143,46.28,5.666
		c2.567,0.085,5.152-0.273,7.711-0.13c3.71,0.207,7.434,0.511,11.102,1.09c5.213,0.824,10.379,1.947,15.57,2.917
		c3.079,0.575,5.354,1.871,5.944,5.34c0.333,1.957,1.325,3.793,1.773,5.741c0.383,1.665,1.172,4.221,0.419,4.924
		c-1.066,0.995-3.384,0.796-5.168,0.806c-0.753,0.004-1.521-0.741-2.261-1.179c-2.162-1.281-3.805-1.18-3.516,1.815
		c0.349,3.598-1.635,4.064-4.567,4.741c-13.642,3.15-26.817,0.818-40.228-1.908c-9.262-1.882-18.917-2.067-28.418-2.484
		c-12.387-0.544-24.817-1.082-37.19-0.621c-7.211,0.269-14.317,2.711-21.53,3.775c-5.666,0.835-11.202,1.553-14.835,6.708
		c-4.879-1.302-10.244-1.767-14.466-4.208c-2.712-1.568-0.368-5.569,1.783-7.375c3.519-2.955,4.45-6.525,4.243-10.772
		c-0.054-1.125-0.179-2.542,0.394-3.355c5.39-7.649,10.633-15.28,21.067-17.068c4.572-0.783,8.806-3.453,13.252-5.108
		C755.366,761.676,757.903,761.11,759.431,760.669z"/>
	<path fill-rule="evenodd" clip-rule="evenodd" d="M1132.604,847.54c2.078,0.638,4.128,1.698,6.238,1.833
		c5.951,0.382,10.165,2.513,11.555,8.878c0.438,2.008,2.636,3.728,2.803,5.683c0.732,8.598,5.857,15.173,9.487,22.477
		c1.597,3.214,2.554,6.94,2.922,10.524c0.467,4.538-2.716,6.783-6.805,7.474c-4.566,0.773-9.061,1.307-12.749,4.707
		c-0.818,0.754-3.127,0.028-4.718-0.219c-3.054-0.472-6.116-1.609-9.11-1.424c-1.483,0.091-3.758,2.34-4.035,3.904
		c-0.596,3.361-2.117,3.39-4.489,2.294c-3.142-1.451-6.256-2.964-9.327-4.558c-1.957-1.016-3.513-1.47-5.376,0.513
		c-0.65,0.692-2.791-0.015-4.251-0.083c0.202-1.481-0.142-3.518,0.701-4.347c3.69-3.632,8.525-3.759,13.361-3.495
		c0.992,0.054,2.489,0.61,2.89,0.163c3.027-3.38,6.755-6.567,8.45-10.58c1.575-3.726,0.555-8.391-2.768-11.607
		c-3.152-3.051-6.342-6.148-9.926-8.637c-2.748-1.909-5.081-0.791-6.294,2.607c-3.338,9.343-9.684,15.596-19.43,18.054
		c-8.189,2.066-16.221-0.343-20.871-6.26c-3.295-4.194-6.789-9.262-8.773-14.589c-2.808-7.538-4.039-8.11-11.574-5.567
		c-5.781,1.951-11.889,2.964-17.891,4.202c-0.9,0.186-2.505-0.42-2.893-1.14c-0.367-0.681,0.202-2.166,0.795-2.98
		c0.641-0.881,1.69-1.668,2.725-2.029c10.185-3.546,20.373-7.091,30.637-10.398c2.277-0.734,4.854-0.565,7.296-0.764
		c17.256-1.408,34.151-0.185,50.174,7.091c1.698,0.771,3.162,2.075,4.878,2.782c2.65,1.091,5.356,1.454,7.445-1.246
		c1.93-2.493,2.773-4.952,0.403-7.788c-1.031-1.233-1.508-2.93-2.237-4.416C1132.1,848.246,1132.352,847.893,1132.604,847.54z
		 M1082.337,871.141c0.508-0.062,1.016-0.125,1.524-0.187c0.625-1.237,2.093-3.015,1.713-3.605
		c-1.001-1.557-2.804-2.599-4.288-3.846c-0.658,0.918-2.05,2.092-1.835,2.707C1080.065,867.974,1081.329,869.513,1082.337,871.141
		z"/>
	<path fill-rule="evenodd" clip-rule="evenodd" d="M871.384,859.818c-5.708,4.356-9.88,3.844-14.246,0.509
		c-2.491-1.902-5.47-3.19-8.294-4.627c-4.705-2.394-7.637-1.37-9.359,3.728c-1.122,3.316-2.47,5.968-5.89,7.479
		c-1.25,0.552-2.298,2.211-2.847,3.6c-4.899,12.395-17.131,12.221-24.905,8.328c-8.279-4.146-13.874-10.518-15.549-20.047
		c-1.289-7.331-6.948-9.167-12.638-4.163c-4.506,3.964-8.501,8.511-13.032,12.442c-2.944,2.555-2.786,5.149-1.247,8.06
		c1.073,2.031,2.383,3.95,3.725,5.822c1.473,2.054,1.241,3.741-0.781,5.189c-2.443,1.751-9.325,1.673-11.999,0.078
		c-5.414-3.23-10.838-6.454-16.369-9.477c-4.036-2.206-5.04-6.767-1.432-10.02c3.801-3.426,5.069-7.325,4.876-12.293
		c-0.287-7.386,7.403-16.948,14.425-18.436c2.585-0.548,3.31,0.952,2.404,2.975c-0.93,2.08-2.696,3.797-3.56,5.893
		c-0.636,1.544-1.017,3.753-0.346,5.072c0.427,0.838,3.167,1.168,4.562,0.737c8.261-2.554,16.286-6.004,24.665-8.007
		c13.578-3.247,27.349-6.095,41.263-1.252c1.069,0.373,2.364,0.741,3.395,0.479c7.535-1.913,13.224,2.623,19.423,5.373
		c5.268,2.337,10.598,4.558,15.744,7.143C866.061,855.751,868.407,857.773,871.384,859.818z M817.678,849.978
		c-1.531,2.244-3.014,3.714-2.752,4.157c1.109,1.888,2.737,3.473,4.174,5.167c1.012-0.987,3.058-2.403,2.857-2.886
		C821.138,854.449,819.632,852.767,817.678,849.978z"/>
	<path fill-rule="evenodd" clip-rule="evenodd" d="M729.534,1179.77c6.666-1.857,13.281-3.95,20.035-5.393
		c1.533-0.327,3.548,1.604,5.341,2.496c-1.173,1.345-2.377,2.666-3.505,4.048c-0.494,0.604-1.042,1.309-1.14,2.024
		c-0.042,0.313,0.938,0.876,1.535,1.144c1.619,0.724,3.284,1.351,4.93,2.016c-1.036,2.128-1.975,4.312-3.165,6.351
		c-0.382,0.655-1.657,0.764-2.108,1.412c-0.584,0.839-0.752,1.966-1.1,2.97c1.009,0.302,2.049,0.927,3.022,0.838
		c2.104-0.192,4.372-2.507,6.114,0.53c1.769,3.084,1.601,6.226-0.828,8.819c-1.538,1.642-4.583,4.325-5.27,3.889
		c-2.994-1.897-6.077-4.36-7.812-7.375c-2.91-5.055-4.555-10.824-7.288-16c-0.952-1.804-3.514-2.785-5.4-4.055
		c-1.109-0.746-2.333-1.32-3.505-1.972C729.439,1180.932,729.487,1180.351,729.534,1179.77z"/>
	<path fill-rule="evenodd" clip-rule="evenodd" d="M985.013,983.522c0.675-2.477,1.059-5.084,2.095-7.398
		c1.316-2.936,3.907-3.245,5.097-0.475c1.708,3.976,2.758,8.297,3.601,12.567c1.325,6.715,0.736,13.946,4.991,19.842
		c3.466,4.805,1.558,9.594,0.355,14.335c-0.3,1.183-2.414,2.94-3.236,2.721c-1.355-0.361-2.946-1.933-3.375-3.321
		c-2.121-6.875-4.014-13.826-5.749-20.809C987.372,995.268,986.286,989.468,985.013,983.522z"/>
	<path fill-rule="evenodd" clip-rule="evenodd" d="M984.336,871.485c0.768,1.307,1.773,2.531,2.267,3.935
		c4.292,12.185,8.47,24.41,12.753,36.597c0.419,1.194,1.621,2.142,1.932,3.341c0.621,2.392,1.19,4.877,1.2,7.327
		c0.012,2.999-0.31,6.065-1.014,8.975c-0.33,1.364-1.896,2.428-2.902,3.627c-0.934-1.097-2.272-2.05-2.727-3.318
		c-1.587-4.422-3.19-8.884-4.177-13.463c-1.019-4.729-0.866-9.727-2.046-14.4c-2.253-8.926-5.207-17.674-7.583-26.573
		c-0.479-1.791,0.317-3.921,0.525-5.896C983.155,871.587,983.747,871.537,984.336,871.485z"/>
	<path fill-rule="evenodd" clip-rule="evenodd" d="M1033.455,833.392c0.283,1.936,1.206,3.879,0.592,4.838
		c-2.228,3.481-4.672,6.931-7.588,9.837c-4.167,4.155-8.704,7.972-13.336,11.61c-1.547,1.216-3.873,1.439-5.843,2.116
		c0.13-2.426-0.495-5.269,0.563-7.183c1.704-3.08,4.213-5.91,6.933-8.191c4.848-4.068,10.096-7.664,15.208-11.413
		C1030.661,834.511,1031.527,834.274,1033.455,833.392z"/>
	<path fill-rule="evenodd" clip-rule="evenodd" d="M856.496,826.364c4.847,2.43,9.816,4.428,14.241,7.273
		c4.814,3.097,9.237,6.85,13.564,10.62c0.965,0.841,0.824,2.951,1.192,4.478c-1.451-0.267-3.243-0.085-4.29-0.882
		c-3.394-2.584-6.272-5.907-11.33-4.704c-0.811,0.193-2.086-1.326-3.07-2.146c-3.855-3.211-7.725-6.409-11.48-9.735
		c-0.87-0.771-1.309-2.027-1.946-3.06C854.27,827.681,855.163,827.153,856.496,826.364z"/>
	<path fill-rule="evenodd" clip-rule="evenodd" d="M1322.313,846.037c-11.324-2.467-14.178,5.175-17.245,12.506
		c-1.046,2.5-2.462,3.217-5.464,3.521c-3.688,0.375-7.217,2.845-10.681,4.663c-1.418,0.745-2.487,2.154-3.715,3.262
		c-0.33-0.255-0.659-0.512-0.988-0.768c0.481-0.834,0.796-1.846,1.468-2.476c8.091-7.587,16.193-15.165,24.385-22.644
		C1314.503,840.057,1318.401,840.45,1322.313,846.037z"/>
	<path fill-rule="evenodd" clip-rule="evenodd" d="M780.358,887.716c3.318,0.878,6.71,1.559,9.913,2.75
		c1.009,0.375,1.507,2.122,2.239,3.241c-1.112,0.697-2.151,1.723-3.358,1.988c-0.991,0.217-2.179-0.474-3.281-0.754
		c-2.409-0.615-4.856-1.107-7.213-1.875c-1.72-0.56-3.321-1.481-4.976-2.24c1.613-0.883,3.2-1.821,4.855-2.616
		c0.468-0.225,1.135-0.034,1.712-0.034C780.285,888.022,780.321,887.87,780.358,887.716z"/>
	<path fill-rule="evenodd" clip-rule="evenodd" d="M907.596,1067.154c-8.055-3-13.731-7.882-20.067-13.133
		C893.939,1053.282,905.968,1061.035,907.596,1067.154z"/>
	<path fill-rule="evenodd" clip-rule="evenodd" d="M610.895,839.791c-1.887-1.838-3.69-3.774-5.682-5.491
		c-2.665-2.297-5.522-4.369-8.201-6.651c-0.912-0.777-1.66-1.831-2.207-2.899c-0.162-0.317,0.78-1.655,0.939-1.607
		c1.156,0.348,2.48,0.683,3.309,1.482c3.724,3.591,7.326,7.31,10.91,11.042c0.84,0.875,1.437,1.983,2.145,2.984
		C611.704,839.031,611.299,839.411,610.895,839.791z"/>
	<path fill-rule="evenodd" clip-rule="evenodd" d="M1097.598,908.135c-1.264-0.994-2.552-1.962-3.727-3.053
		c-0.065-0.062,1.155-1.7,1.209-1.667c1.353,0.819,2.629,1.766,3.919,2.689C1098.533,906.781,1098.065,907.458,1097.598,908.135z"
		/>
	<path fill-rule="evenodd" clip-rule="evenodd" d="M1271.277,889.722c0.121,1.232,0.277,2.464,0.283,3.698
		c0,0.083-1.141,0.17-1.751,0.256c-0.116-1.276-0.232-2.552-0.348-3.828C1270.066,889.806,1270.671,889.763,1271.277,889.722z"/>
	<path fill-rule="evenodd" clip-rule="evenodd" fill="#FFFFFF" d="M1189.922,806.107c0.98,0.855,2.028,1.646,2.928,2.58
		c1.67,1.738,3.404,3.451,4.813,5.389c0.783,1.076,0.965,2.59,1.418,3.905c-1.698-0.229-4.255,0.155-4.938-0.8
		c-2.191-3.07-3.691-6.634-5.457-10.007C1189.098,806.818,1189.51,806.463,1189.922,806.107z"/>
	<path fill-rule="evenodd" clip-rule="evenodd" fill="#FFFFFF" d="M1150.339,1192.482c0.122,6.115-1.048,7.843-6.821,10.074
		C1143.034,1198.756,1146.265,1193.984,1150.339,1192.482z"/>
	<path fill-rule="evenodd" clip-rule="evenodd" fill="#FFFFFF" d="M1032.798,1387.257c1.613-2.458,3.486-4.217,7.023-2.494
		c-1.737,3.239-4.561,2.457-7.125,2.416C1032.688,1387.173,1032.798,1387.257,1032.798,1387.257z"/>
	<path fill-rule="evenodd" clip-rule="evenodd" fill="#FFFFFF" d="M1082.337,871.141c-1.008-1.628-2.272-3.167-2.885-4.932
		c-0.214-0.615,1.178-1.788,1.835-2.707c1.484,1.247,3.286,2.289,4.288,3.846c0.379,0.591-1.088,2.369-1.713,3.605
		C1083.353,871.015,1082.845,871.078,1082.337,871.141z"/>
	<path fill-rule="evenodd" clip-rule="evenodd" fill="#FFFFFF" d="M817.678,849.978c1.955,2.789,3.46,4.471,4.279,6.438
		c0.201,0.483-1.845,1.899-2.857,2.886c-1.438-1.695-3.065-3.28-4.174-5.167C814.664,853.691,816.147,852.222,817.678,849.978z"/>
	<path fill-rule="evenodd" clip-rule="evenodd" d="M150.168,1761.96c-70.527,118.754-43.529,195.25-45.029,211.749
		s115.494-9,115.494-9"/>
</g>
<g id="Layer_2_xA0_Image_1_">
	<path fill-rule="evenodd" clip-rule="evenodd" d="M1538.29,1861.146c12.5-78.772,27.898-156.032,35.946-235.736
		c7.929-78.533,119.739-113.132,181.264-140.086c19.583-8.579,250.191-100.209,236.005-125.499
		c-9.058-16.145-91.799-205.745-98.928-204.792c-3.544,3.461-5.229,7.888-5.057,13.281c-5.87-6.758-47.682-25.897-38.625-32.884
		c-1.854-24.369,9.098-51.73-11.422-70.549c-3.156-2.895-1.068-60.388-14.42-52.505c-7.315-16.645,2.281-10.766-7.425-16.684
		c-4.134-32.615,21.259-63.489,0.983-95.001c-39.729-61.688-22.887,15.933-40.017,17.549c-5.685-12.076,9.433-43.681,1.59-51.069
		c-3.837-3.615-21.729-24.465-15.785-31.572c7.586-9.078,10.855-47.894,7.258-58.527c-3.865-11.43-1.96-20.893-4.062-33.126
		c-1.406-8.188-12.33-1.191-14.899-5.818c0.529,0.953,16.578-42.431,8.154-38.825c-2.871,1.229-15.901-25.324-17.832-28.235
		c-5.332-8.04,4.392-91.248-3.653-93.408c5.018,1.352-1.081,18.097,6.588,16.645c6.851-1.297,0.055-13.468,5.462-13.403
		c1.433,15.496,19.959-3.423,27.561-13.545c6.737-8.966-53.226-0.537-16.513-23.107c2.01,2.098,7.338,17.369,12.868,13.304
		c1.694-1.246-0.43-7.154,2.206-8.105c0.882-0.319,9.895,3.202,13.493-1.166c0.794-0.965-12.139-5.001-14.151-11.017
		c-3.128-9.352,25.187-2.148,27.044-3.143c21.082-11.278,0.549-26.418-2.648-39.208c-1.758-7.047,12.892-2.824,9.943-12.268
		c-0.482-1.543-13.703-2.13-15.852-3.017c5.076-4.306,14.377-22.802,19.732-28.965c5.85-6.732,33.016-14.059,38.595-14.138
		c3.258-0.045,28.331-38.911,31.167-43.785c13.134-22.576,14.616-23.164,24.246-49.341c13.251,21.294,33.219-21.354,44.969-19.286
		c-1.26-0.222,48.407-6.407,47.297-5.299c19.738-19.697,39.027-25.229,65.891-26.821c-2.967,0.176,37.519-29.979,39.377-25.251
		c-2.41-6.127-18.771-9.421-24.042-10.479c16.697-12.045,27.594,7.029,42.115,5.961c21.374-1.566,45.842-3.735,66.229,1.418
		c21.895,5.528,47.378-19.371,63.696-1.292c11.583,12.834,37.88,41.075,56.444,20.993c3.963-4.289,49.354-4.807,55.495-4.83
		c10.104-0.044,56.334,35.896,62.382,45.421c16.977,26.772,34.4,43.682,48.087,73.484c5.262,11.462,33.348,23.219,28.182,38.708
		c-5.601,16.78,68.677,46.093,76.372,61.332c12.714,25.181,52.438,50.556,73.391,70.694c24.405,23.451,32.656,69.365,6.021,93.388
		c-21.434,19.327-6.391,70.498-10.117,95.418c-2.478,16.541-11.217,68.898-6.883,84.693c6.091,22.201,19.85,14.44,40.672,14.44
		c-1.975,20.042-38.593,63.758-26.596,83.342c6.816,11.133-4.096,44.006-5.555,57.538c-1.08,10.028-28.622,14.908-17.01,29.296
		c3.516,4.354,13.427,8.625,17.891,4.629c-1.609,26.035-18.943,45.674-42.146,58.996c-38.661,22.193,21.311-71.436,5.744-74.65
		c-12.704-2.622-27.952,61.758-39.377,44.249c-24.13-36.989-27.607,63.383-25.843,69.669c4.809,17.138,24.721-6.328,28.302,8.825
		c3.208,13.58-7.344,60.353,1.313,66.939c43.274,32.916,52.408,84.234,81.228,126.753c19.125,28.222,76.665,34.606,108.582,47.109
		c51.467,20.157,102.475,41.8,152.836,64.601c53.488,24.216,105.441,48.14,155.73,78.307
		c23.261,13.953,46.939,26.852,70.911,39.538c29.124,15.41,15.864,74.368,15.864,105.697c0,32.361,0,64.723,0,97.083
		c0,16.186,0,32.372,0,48.559c0,33.2,13.839,48.572-25.115,48.572c-83.716,0-167.432,0-251.147,0c-159.062,0-318.121,0-477.181,0
		c-33.487,0-66.974,0-100.46,0c-33.956,0-29.712-18.937-59.734-3.17c-23.664,12.434-74.725,3.17-102.078,3.17
		c-40.704,0-81.407,0-122.111,0C1863.919,1861.146,1701.104,1861.146,1538.29,1861.146
		C1538.626,1859.024,1774.371,1861.146,1538.29,1861.146z M2343.998,1195.754c-9.034,12.72-4.418,25.727-12.557,31.505
		c-14.054,9.963,21.966,11.983,21.095,11.074c11.549,12.055-8.643,23.628,14.037,26.859c-6.783-0.977,3.491-31.688,5.68-34.224
		c6.814-7.896,14.537,15.078,12.944,15.697c10.487-4.057-5.04-23.425-4.938-27.524c0.114-4.626,6.476,1.28,7.516,0.443
		c7.685-6.196,2.384-25.666,5.042-33.126c5.06,3.624,6.025,7.985,13.146,9.225c-2.358-8.872-15.444-24.717-14.708-31.653
		c6.987,3.245,15.531,20.47,19.721,20.316c-12.293,0.457,17.936-36.47,15.078-30.966c1.062-2.043-5.451-9.826-2.618-11.021
		c5.453-2.3,0.769,11.653,9.643,2.941c3.9-3.826-8.989-13.003-2.69-16.259c14.605,24.848,26.582-42.964,14.101-40.656
		c6.968-1.295,7.562,25.965,16.548,24.307c2.871-0.531,12.321-29.866,15.534-32.762c11.677-10.531,41.272-48.27,34.609-67.473
		c-6.688-19.274,16.637-49.736,0.43-68.403c-18.709-21.527,6.606-49.411-22.617-68.649c1.797,1.183-13.233-43.602-13.104-42.25
		c-1.427-14.939,0.847-38.177-7.14-51.658c-14.894-25.141-37.974-40.574-49.111-69.13c-3.874-9.949-8.371-33.075-24.029-31.89
		c-0.528,0.04-39.76-2.469-34.848,3.321c-2.706-3.189-73.966-63.445-78.465-63c13.304-1.311-53.034,42.965-44.886,27.395
		c-6.268,11.971-46.554,2.648-54.645-2.773c-0.475,0.381,7.173-3.94,6.683-2.408c0.287-2.726-0.666-4.932-2.855-6.618
		c9.011,8.146-32.725-2.801-26.416-3.31c-0.922,0.074-27.036,2.906-29.137,3.472c-7.016,1.891-19.028,24.215-21.854,18.771
		c-0.439-0.847,5.185-7.377,0.037-7.209c-7.028,0.228-8.303,9.401-16.745,11.163c-10.957,2.286-7.193-0.328-17.694,0.104
		c-18.679,0.77-39.772,95.891-83.86,89.424c-13.049-1.915-31.398,21.551-41.979,14.113c-17.596-12.364-39.448-10.8-35.519,17.6
		c1.394,10.087-17.43,62.176,9.36,48.06c17.158-9.029,28.584-26.001,48.277-31.881c4.365-1.302,66.388-25.016,66.987-11.265
		c0.773,17.603,26.627,19.199,27.176,20.282c12.386,24.517-35.978,20.245-43.884,20.173c-30.478-0.274-36.282,7.6-62.17,18.583
		c-18.633,7.91-15.818,28.244-28.002,38.443c-17.509,14.643-3.727,24.944-23.246,7.574
		c-10.729-9.547-32.938,126.659-18.938,149.663c4.188,6.863,11.334,51.208,10.213,57.678c-0.137,0.786,19.42,28.731,21.371,34.619
		c3.018-1.058,5.734-2.664,8.148-4.818c0.273,1.107,3.632,24.852,1.847,23.641c2.769,1.128,5.239,0.68,7.413-1.346
		c0.734,4.451,0.173,7.188,3.428,10.246c2.22-2.725,1.994-14.463,7.104-13.931c6.167,0.642,6.374,12.096,17.897,12.739
		c-1.325,5.194-5.98,18.524-2.418,23.391c1.75-0.234,3.781-4.15,5.877-2.703c8.356,5.772-3.653,49.385,10.488,50.642
		c3.035,0.271,3.008-8.742,6.156-7.505c6.149,2.41,6.537,23.579,3.792,27.627c9.021,5.574,22.161-14.458,15.472-16.094
		c-3.946-0.965-7.613,6.761-9.667,5.487c-6.964-4.334,12-65.619,16.821-66.731c-6.25,1.443,41.791-35.742,30.106-7.837
		c32.506-10.759,33.457-83.966,72.541-54.653c2.389,1.79,31.5,2.952,28.182,9.669c-7.962,16.108,8.309,16.567,12.587,17.376
		c28.696,5.422-43.379,28.481-44.196,30.981c-0.475,1.451-35.923,21.163-40.283,13.174c-9.931,9.29-26.504,30.188-35.928,42.306
		c9.695,2.574-11.674,51.52,11.067,41.101c7.019,14.232-7.33,18.799-5.723,30.662c8.279-3.309,4.522,0.926,5.109,8.248
		c2.023,25.238,34.254,7.285,37.948,10.876c6.279,6.104-14.625,10.996,0.942,14.564c2.907,0.666,22.441,7.874,22.044,14.1
		c-0.094,1.472,17.94,40.7,16.957,40.948c5.45-1.379,0.424-20.095,7.229-18.436c2.451,3.138,2.516,6.576,0.194,10.314
		c9.326,2.957,4.506-23.299,10.055-27.008c0,2.753,0.112,29.395,0.706,30.116c3.312,1.336,6.068,0.62,8.269-2.147
		c-0.692,11.463-7.228,26.547-10.534,37.589c7.124-1.328,6.44-7.179,15.013-7.915c-8.352,10.575,4.272,16.067,9.284,20.984
		c3.199,3.146-7.293-24.088-5.495-24.633c5.609-1.697,3.244,7.902,7.464,8.094c0.459,0.02-0.629-31.057-1.363-35.313
		c-5.161,6.708-16.093,7.696-9.343-2.301c21.144,14.464-3.567-46.658,16.378-2.87c1.684-2.939,3.361-5.883,5.031-8.83
		c1.174,14.308-13.021,19.132-2.674,30.821c3.955,4.46,24.963,16.942,16.334,7.37c-0.638-0.707-20.639-30.9,0.851-29.1
		c20.524,1.719,31.519,20.31,29.163-17.497c12.826,8.842-1.405,38.608,12.8,47.023c0.191,0.114,8.949-0.479,15.041,3.596
		c6.321-12.366-17.14-25.677-8.012-38.765c0.847,0.604,13.643,20.059,14.118,21.017c9.678-6.686-8.146-26.363-2.976-30.014
		c0.958-0.675,24.502-12.367,21.735-12.104c12.993-1.252,11.752-17.629,17.656-25.043c8.529-10.71,16.346-31.172,28.007-36.43
		c15.535-7.006-2.467-47.88-2.289-48.068c1.778-1.88,6.133,4.971,9.08,3.038c5.083-3.337-3.048-32.738,6.43-42.58
		c-10.557-2.976-21.383-6.685-33.295-5.63c-11.979,1.054-16.353-37.774-22.161-13.063c-3.761-3.023-6.251-11.429-9.63-15.671
		c-9.309-11.688-12.543,13.47-22.042,3.315c-3.933-4.205-20.614-8.946-21.094-9.901c1.78,3.55-26.609-20.49-17.624-19.714
		c2.624,0.229-57.552,46.975-42.561-7.309c8.154-29.528,35.23-15.782,30.547-39.644c14.001-0.562,56.921,17.379,62.213,24.899
		c6.913,9.793-15.669,8.503-15.663,8.289c-0.5,16.257,25.212-3.698,25.876-3.853c-9.26,2.146,45.178,44.321,45.178,26.693
		c2.518,4.229,5.417,4.756,8.699,1.578c-2.848-4.741-3.112-9.309-0.795-13.705c15.375-7.045,19.781,45.091,28.223,44.787
		c2.894-0.104,3.169-11.748,8.814-6.267c-2.004-1.949-6.091,29.864-4.763,28.868
		C2348.453,1200.062,2345.666,1198.914,2343.998,1195.754C2343.162,1196.932,2344.891,1196.821,2343.998,1195.754z
		 M2400.743,1438.439c-5.184,0.83-32.027,13.772-34.532,17.686c-1.753,2.739,10.442,7.569,5.435,9.257
		c-11.384,3.834-48.108,32.892-54.916,26.272c-3.143-3.058,4.171-4.821,2.795-7.953c6.247,14.232-47.483,16.579-52.551,17.613
		c-15.656,3.189-32.523,8.427-49.616,9.225c-9.142,0.425-20.766,0.401-29.324,1.551c-37.451,5.03-8.432,4.482-19.634,18.576
		c-2.565-0.575-5.151-1.027-7.758-1.356c-1.256,35.427,85.736,47.161,86.313,57.134c0.621,10.756-37.959-1.899-44.107-3.078
		c-23.056-4.416-47.308-24.21-62.417-41.504c-21.046-24.097-39.141-52.661-60.818-75.292
		c-2.736-2.856-37.056-16.669-37.253-14.583c-3.228,34.203,44.493,70.573,44.075,104.115
		c-0.419,33.603,50.336,69.183,63.259,95.66c16.184,33.144,40.273,62.933,71.735,86.709
		c20.941,15.828,30.436,49.484,52.519,64.273c11.278,7.549,28.526,0.955,26.997-17.554c10.569,8.12,39.291-20.577,50.021-29.544
		c30.154-25.219,69.822-39.47,80.312-78.094c7.046-25.955-14.526-60.253,4.188-84.399c21.332-27.606,44.141-53.668,66.576-80.299
		c40.34-47.883,60.229-85.763,66.803-146.522c0.563-5.23-9.803-57.472-10.439-57.755c-9.479-4.232-8.385-70.257-20.596-84.135
		c-6.001,6.124-6.945,59.354-18.987,58.322c1.267,0.109-14.073-13.059-14.874-13.799c0,20.311-16.301,4.168-15.129,20.886
		c-0.403-5.756-9.807,20.558-9.33,19.513c-11.55,25.288-35.001,37.622-24.182,64.158c-15.908,6.58-17.126,21.094-28.842,26.702
		C2421.254,1402.719,2397.681,1434.113,2400.743,1438.439C2399.183,1438.689,2398.356,1435.067,2400.743,1438.439z
		 M2502.215,1693.243c0-24.971-21.826-8.73-27.968,2.279C2462.443,1716.689,2503.719,1721.986,2502.215,1693.243
		C2502.215,1692.092,2502.599,1700.588,2502.215,1693.243z M1844.636,469.367c-6.575,0.194-5.428-6.512-8.222-6.214
		c-29.388,3.119-10.911,45.463-10.866,45.396c1.079-2.414,0.277-4.138-2.406-5.173c2.91-3.452,6.485-3.843,10.725-1.173
		c10.279,1.962-7.079-19.398-4.35-23.116C1837.376,482.274,1846.799,478.045,1844.636,469.367
		C1844.263,469.378,1845.034,470.964,1844.636,469.367z M2058.211,1626.261c1.038,4.493,16.613,40.906,25.941,34.354
		C2094.465,1653.369,2062.029,1628.853,2058.211,1626.261C2058.505,1627.532,2060.769,1627.996,2058.211,1626.261z
		 M1907.525,853.266c1.477-6.833,0.628-13.089-2.543-18.767c-10.375,0.017-4.317,55.976,1.001,50.11
		C1906.997,883.49,1907.737,848.649,1907.525,853.266C1907.198,847.105,1907.302,858.125,1907.525,853.266z M2268.106,292.231
		c1.726,3.243-8.106,9.211-7.596,14.546c0.466,4.875,13.528-9.755,17.783-6.549
		C2289.467,270.549,2249.136,295.275,2268.106,292.231C2268.346,292.682,2266.086,292.556,2268.106,292.231z M1821.312,523.314
		c-11.916,0.179,3.092,15.859,8.486,8.656c4.311-5.764,3.55-10.047,8.841-15.75c-3.298-2.887-14.602-8.649-16.034-2.014
		C1822.149,516.316,1831.599,525.568,1821.312,523.314C1818.428,523.358,1821.551,523.367,1821.312,523.314z M2015.811,1261.185
		c-11.239,5.921-7.147,27.315,3.729,31.025C2023.822,1281.194,2022.579,1270.853,2015.811,1261.185
		C2012.765,1262.789,2022.059,1270.808,2015.811,1261.185z M2597.099,1028.366c-1.381-2.356-2.76-4.714-4.14-7.069
		c-6.851-0.326-15.158,19.074-11.714,24.437C2587.115,1054.865,2597.678,1027.047,2597.099,1028.366
		C2597.175,1024.357,2595.691,1031.563,2597.099,1028.366z M2667.08,628.489c0.771-3.825,0.71-36.682-7.225-34.802
		c-7.889,1.868,1.937,28.99,1.937,34.383C2663.493,622.167,2665.257,622.307,2667.08,628.489
		C2667.688,625.475,2665.835,626.402,2667.08,628.489z M2270.896,1386.602c2.283-4.068-2.572-17.316-6.027-19.03
		c-1.972,9.402,3.198,33.621,17.329,33.296C2281.274,1393.695,2281.796,1383.263,2270.896,1386.602
		C2272.522,1383.703,2277.457,1384.592,2270.896,1386.602z M2039.34,699.645c-0.178-14.28-17.608,6.419-15.389,12.301
		C2028.824,724.855,2038.442,701.541,2039.34,699.645C2039.267,693.806,2038.692,701.013,2039.34,699.645z M2647.186,615.968
		c-0.224,1.123,4.683,17.249,8.636,16.573c6.273-1.07-1.084-24.733-5.096-24.21
		C2647.611,609.559,2646.431,612.104,2647.186,615.968C2646.495,619.425,2647.567,613.909,2647.186,615.968z M2143.325,1384.492
		c-7.308,2.389-12.519-7.999-15.367,9.652C2127.174,1398.994,2140.837,1388.95,2143.325,1384.492
		C2139.526,1385.733,2142.695,1385.618,2143.325,1384.492z M1764.976,589.784c4.624-4.093,12.814-7.259,14.767-13.223
		C1780.333,574.763,1761.25,578.192,1764.976,589.784C1766.731,588.23,1764.512,588.341,1764.976,589.784z M2205.039,1390.955
		c2.714,0.871,9.149-1.638,3.152-3.117c-8.761-2.166-13.351,5.283-9.749,13.765
		C2200.585,1406.635,2206.688,1386.337,2205.039,1390.955C2206.067,1391.285,2204.099,1393.592,2205.039,1390.955z
		 M2068.08,1672.408c-1.949,1.016,4.2,11.381,9.007,7.129C2080.553,1676.47,2069.101,1658.195,2068.08,1672.408
		C2067.898,1672.503,2068.132,1671.688,2068.08,1672.408z M2083.878,1622.842c0.342,10.535,9.637,2.67,9.427-2.273
		C2089.627,1615.868,2086.484,1616.626,2083.878,1622.842C2083.967,1625.583,2083.786,1620.005,2083.878,1622.842z
		 M2435.002,1193.108c-7.154-10.244-10.366,10.101-5.74,8.732C2432.946,1200.137,2434.86,1197.225,2435.002,1193.108
		C2434.55,1192.46,2435.136,1197.021,2435.002,1193.108z M2005.493,1282.265c1.773-7.71-0.152-11.282-5.777-10.717
		C1996.987,1275.728,2001.445,1290.156,2005.493,1282.265C2004.671,1278.34,2005.273,1282.692,2005.493,1282.265z
		 M2037.416,1274.578c0.558,6.181,3.114,8.105,7.667,5.776C2044.174,1271.836,2041.618,1269.911,2037.416,1274.578
		C2038.57,1276.805,2038.028,1272.02,2037.416,1274.578z M2237.396,270.495c-1.293-1.593-5.157-5.647-7.431-5.251
		C2226.046,265.92,2233.378,282.497,2237.396,270.495C2236.747,269.697,2236.875,272.05,2237.396,270.495z M2442.776,1361.012
		c-5.893,6.209-6.196,10.189-0.909,11.938C2445.973,1369.289,2448.822,1364.33,2442.776,1361.012
		C2441.594,1364.523,2447.143,1363.408,2442.776,1361.012z M2337.99,1255.165c-0.648,2.959,0.058,5.322,2.12,7.09
		C2345.313,1262.896,2341.973,1246.375,2337.99,1255.165C2338.242,1257.448,2338.174,1254.759,2337.99,1255.165z
		 M2033.16,1242.348c-5.09-5.462-10.213,4.977-5.995,7.933C2028.771,1251.408,2032.376,1243.9,2033.16,1242.348
		C2032.452,1241.588,2032.672,1243.313,2033.16,1242.348z M2004.684,1262.808c-1.844-5.126-3.809-5.62-5.895-1.483
		C2000.51,1267.375,2002.475,1267.869,2004.684,1262.808C2004.688,1259.98,2004.597,1264.438,2004.684,1262.808z
		 M2224.727,1393.07c-2.239-1.952-4.803-2.889-7.69-2.81C2216.392,1395.99,2218.955,1396.926,2224.727,1393.07
		C2223.234,1392.264,2221.97,1396.63,2224.727,1393.07z M2470.594,1314.396c-1.919-6.244-5.609,3.334-4.554,5.076
		C2469.26,1324.785,2470.492,1314.925,2470.594,1314.396C2470.435,1313.878,2470.229,1316.283,2470.594,1314.396z
		 M2213.321,1401.647c-1.165-1.816-7.835-4.921-5.759-0.556C2209.903,1406.67,2211.823,1406.854,2213.321,1401.647
		C2212.429,1400.257,2212.425,1403.163,2213.321,1401.647z M2227.253,294.773c3.981,0.69,3.146-6.335,1.263-8.181
		C2223.893,282.067,2227.981,296.626,2227.253,294.773C2227.614,294.835,2226.643,293.219,2227.253,294.773z M1901.284,816.895
		c1.379,6.138,3.113,7.034,5.203,2.687C1905.03,814.862,1903.296,813.966,1901.284,816.895
		C1901.351,820.126,1901.591,816.592,1901.284,816.895z M1964.857,1190.134c-0.229-2.204-3.274-6.948-4.235-1.479
		C1959.686,1193.971,1963.597,1194.7,1964.857,1190.134C1964.781,1189.402,1964.669,1190.814,1964.857,1190.134z M2244.57,270.045
		c-2.456-4.765-4.198-4.414-5.226,1.052C2241.101,274.578,2242.843,274.227,2244.57,270.045
		C2243.288,268.577,2243.369,271.445,2244.57,270.045z M2263.679,281.841c-4.401,2.819-5.875,5.691-5.719,10.276
		C2261.387,289.784,2262.207,286.162,2263.679,281.841z M2658.016,647.969c1.685-3.941,1.267-7.381-1.238-10.199
		C2655.937,641.052,2656.413,644.975,2658.016,647.969z M1912.067,840.404c3.128,2.546,5.466-1.867,5.908-4.702
		C1914.793,834.932,1912.824,836.5,1912.067,840.404C1912.454,840.719,1913.124,838.803,1912.067,840.404z M1946.69,1175.418
		c5.316-1.57,6.99-3.663,5.021-6.28C1948.788,1169.577,1947.114,1171.671,1946.69,1175.418
		C1950.661,1175.425,1948.052,1173.132,1946.69,1175.418z M2436.911,1160.263
		C2431.807,1152.773,2429.822,1166.084,2436.911,1160.263C2435.938,1158.834,2435.609,1161.332,2436.911,1160.263z
		 M1783.496,559.424C1779.336,554.668,1777.595,569.407,1783.496,559.424C1783.254,559.147,1782.906,560.422,1783.496,559.424z
		 M1870.267,963.234C1874.823,966.019,1873.929,948.535,1870.267,963.234C1870.507,963.38,1870.667,961.63,1870.267,963.234z
		 M2440.876,1671.727c-4.014,2.09-4.673,3.509-4.104,8.506C2438.28,1677.106,2439.372,1674.844,2440.876,1671.727z
		 M1843.598,446.128C1848.136,440.839,1838.849,440.795,1843.598,446.128C1844.502,445.074,1842.619,445.029,1843.598,446.128z
		 M1909.879,850.492C1916.815,856.527,1913.555,846.603,1909.879,850.492C1911.098,851.553,1910.784,849.534,1909.879,850.492z
		 M2334.366,1182.869C2338.035,1177.808,2329.925,1176.874,2334.366,1182.869
		C2335.29,1181.595,2333.346,1181.491,2334.366,1182.869z M2274.298,613.198C2268.557,609.152,2268.722,616.651,2274.298,613.198
		C2273.051,612.319,2273.001,614.001,2274.298,613.198z M2656.714,887.855C2652.369,893.401,2660.789,893.567,2656.714,887.855
		C2655.599,889.278,2657.698,889.235,2656.714,887.855z M1815.27,510.738C1808.88,504.475,1811.212,514.317,1815.27,510.738
		C1814.078,509.57,1814.32,511.575,1815.27,510.738z M2444.468,1597.551C2439.169,1594.222,2439.356,1600.139,2444.468,1597.551
		C2443.311,1596.823,2443.243,1598.171,2444.468,1597.551z M2440.269,1663.374c-2.722-1.396-3.852,0.53-3.391,5.777
		C2439.599,1670.555,2440.729,1668.629,2440.269,1663.374C2439.872,1663.234,2439.535,1665.439,2440.269,1663.374z
		 M2352.589,1262.447C2348.057,1259.49,2347.931,1266.18,2352.589,1262.447
		C2351.472,1261.719,2351.528,1263.297,2352.589,1262.447z M2025.586,1268.926
		C2020.441,1276.989,2031.335,1272.818,2025.586,1268.926C2024.527,1270.586,2027.721,1270.371,2025.586,1268.926z
		 M2331.692,1273.215C2334.6,1267.949,2328.489,1268.664,2331.692,1273.215C2332.3,1272.114,2330.962,1272.178,2331.692,1273.215z
		 M1806.881,469.726C1803.217,467.191,1801.017,473.976,1806.881,469.726C1805.881,469.034,1805.653,470.615,1806.881,469.726z
		 M2670.489,857.894C2661.781,858.317,2670.396,865.368,2670.489,857.894C2668.66,857.982,2670.462,860.134,2670.489,857.894z"/>
	<path fill-rule="evenodd" clip-rule="evenodd" d="M1776.066,515.381c0.058-0.106-0.22,0.744-0.767,1.354
		c-3.11,3.467-1.771,6.385,0.306,9.352c0.245,0.35,0.742,0.595,0.837,0.963c0.187,0.725,0.174,1.502,0.245,2.258
		c-0.782-0.013-1.735,0.248-2.304-0.106c-0.808-0.503-1.282-1.511-1.989-2.211c-1.18-1.17-2.301-2.474-3.682-3.35
		c-2.444-1.549-3.008-2.458-1.45-4.755c1.249-1.842,1.078-3.6,1.199-5.625c0.156-2.578,1.253-5.21,2.435-7.575
		c0.825-1.652,2.507-0.895,2.954,0.452C1774.752,508.866,1775.225,511.737,1776.066,515.381z"/>
	<path fill-rule="evenodd" clip-rule="evenodd" d="M1735.727,557.085c0.556,2.897,1.182,6.057,1.755,9.225
		c0.126,0.698,0.251,1.488,0.042,2.127c-0.189,0.574-0.758,1.189-1.311,1.417c-0.345,0.142-1.106-0.281-1.451-0.659
		C1732.307,566.501,1733.069,559.674,1735.727,557.085z"/>
	<path fill-rule="evenodd" clip-rule="evenodd" d="M2149.419,1197.542c3.88,1.178,7.76,2.737,11.789,3.463
		c3.332,0.601,6.841,0.196,10.27,0.277c2.135,0.05,4.301-0.028,6.392,0.322c2.163,0.361,3.812,0.04,5.537-1.467
		c2.698-2.355,3.455-2.379,6.435-0.192c2.1,1.54,3.846,1.496,5.918,0.151c2.441-1.585,4.897-1.677,7.074,0.562
		c1.6,1.647,3.119,1.43,5.026,0.342c1.826-1.042,4.059-1.362,5.922-2.355c2.904-1.548,5.824-3.169,8.42-5.172
		c3.905-3.013,4.975-3.03,7.036,1.284c0.932,1.95,2.3,2.504,4.166,2.193c2.519-0.419,4.991-1.259,7.519-1.445
		c3.911-0.29,7.149-1.809,10.236-4.12c2.473-1.852,5.14-1.721,7.561,0.265c2.68,2.197,5.607,3.267,9.06,3.503
		c2.398,0.164,4.727,1.231,7.129,1.468c2.84,0.281,5.744,0.314,8.588,0.075c3.741-0.315,7.143,0.247,10.245,2.444
		c2.242,1.589,2.456,3.801,1.97,6.179c-0.448,2.19-2.143,2.844-4.161,3.114c-5.735,0.765-9.73,4.772-14.25,7.79
		c-1.073,0.716-1.95,1.909-3.108,2.275c-3.09,0.978-5.908,1.984-7.377,5.329c-0.365,0.831-2.319,1.649-3.278,1.41
		c-3.929-0.977-7.218-0.427-10.338,2.334c-1.893,1.676-4.419,2.612-6.462,4.146c-3.711,2.786-3.134,8.336,1.148,10.016
		c2.613,1.024,4.98,1.886,4.613,5.234c-0.411,3.735-2.663,6.07-5.669,7.535c-0.661-3.402-1.037-6.632-1.954-9.698
		c-1.018-3.404-3.688-5.049-7.225-5.163c-1.439-0.046-2.957-0.214-4.312,0.146c-3.752,0.997-7.12,0.975-9.757-2.398
		c-0.243-0.312-0.726-0.554-1.128-0.608c-6.165-0.837-12.389-1.435-17.996,1.984c-2.889,1.762-6.044,2.492-9.058,3.693
		c-4.492,1.788-8.804,1.779-13.348,1.577c-1.097-0.05-2.25,0.455-3.325,0.847c-2.72,0.991-5.179,0.801-7.908-0.448
		c-3.225-1.477-6.895-3.364-10.164-3.031c-4.874,0.495-9.411,1.322-13.749-1.628c-0.286-0.194-0.885-0.096-1.268,0.051
		c-3.988,1.522-7.96,3.087-11.94,4.63c-1.469,0.569-2.921,1.199-4.426,1.652c-2.435,0.732-4.53,0.352-6.039-1.987
		c-1.411-2.188-3.125-2.505-5.889-1.982c-3.59,0.678-7.45,0.161-11.159-0.208c-0.939-0.094-2.208-1.429-2.514-2.439
		c-0.784-2.584-2.047-2.587-3.705-1.062c-2.325,2.137-4.709,1.703-7.209,0.502c-1.294-0.622-2.596-1.726-3.903-1.739
		c-7.03-0.073-12.732-4.522-19.449-5.662c-2.933-0.499-4.108-4.941-2.287-7.39c2.17-2.916,4.57-5.581,8.201-6.798
		c1.215-0.407,2.346-1.099,3.47-1.739c3.236-1.842,6.559-3.561,9.637-5.64c2.592-1.75,5.059-3.766,7.27-5.974
		c2.774-2.771,5.34-3.593,8.819-1.831c1.739,0.881,3.172,0.773,4.922,0.095c1.251-0.484,3.027-0.81,4.124-0.281
		c4.483,2.161,8.854,0.825,13.128-0.231c2.242-0.555,4.153-0.491,6.303,0.064c3.008,0.779,6.097,1.985,9.009-0.61
		c0.606-0.54,1.93-0.434,2.906-0.373C2148.989,1201.075,2148.986,1201.11,2149.419,1197.542z M2137.613,1224.053
		c0.184,0.393,0.368,0.785,0.552,1.18c0.82,0.21,1.629,0.5,2.462,0.615c3.423,0.475,6.928,0.593,10.263,1.412
		c4.618,1.133,9.09,2.852,13.667,4.171c1.771,0.511,3.722,1.058,5.479,0.808c4.117-0.583,8.013,0.259,12.006,0.876
		c2.36,0.364,4.907,0.264,7.253-0.211c2.931-0.593,5.688-2.025,8.617-2.649c2.909-0.621,5.467-3.022,8.866-1.659
		c0.686,0.275,2.004-0.889,2.97-1.488c0.848-0.525,1.524-1.459,2.425-1.747c5.602-1.793,11.09-3.785,17.225-3.499
		c4.904,0.229,9.758-1.007,14.046-3.71c2.452-1.546,2.559-2.784,0.508-4.752c-3.416-3.277-11.962-4.752-15.832-2.294
		c-4.906,3.114-10.101,0.927-15.137,1.36c-0.451,0.039-1.082-0.458-1.417-0.876c-2.834-3.533-6.301-3.33-10.109-1.956
		c-1.746,0.63-3.618,1.231-5.443,1.262c-7.221,0.124-14.506,0.595-21.653-0.149c-9.234-0.963-17.113,3.377-25.626,5.177
		C2145.437,1219.134,2142.498,1222.783,2137.613,1224.053z M2127.788,1228.205c2.5,0.014,4.273-1.313,4.166-3.266
		c-0.108-1.939-1.15-3.209-3.174-3.357c-2.067-0.152-3.742,1.86-3.794,4.296
		C2124.943,1227.903,2126.241,1228.17,2127.788,1228.205z"/>
	<path fill-rule="evenodd" clip-rule="evenodd" d="M2276.723,766.418c5.512,3.142,11.471,0.478,17.705-0.713
		c4.058-0.776,8.508,0.574,12.788,0.884c3.796,0.276,7.094,2.154,10.63,3.106c3.482,0.938,7.431,0.804,11.062,0.308
		c2.38-0.325,4.373-0.282,6.651,0.43c3.807,1.191,7.818,1.717,11.642,2.866c3.389,1.019,6.744,2.286,9.922,3.837
		c4.112,2.007,8.167,2.785,12.454,0.845c5.107-2.312,9.138-1.383,12.965,2.912c2.478,2.78,5.274,5.292,7.595,8.192
		c3.348,4.184,7.989,5.727,12.736,7.548c3.25,1.247,6.165,3.642,8.882,5.936c3.298,2.784,5.766,6.334,7.809,10.181
		c1.687,3.173,4.106,6.034,5.336,9.353c1.631,4.401,2.758,9.064,3.452,13.711c0.457,3.058-2.97,5.104-6.462,4.376
		c-1.114-0.232-2.258-1.003-3.288-0.85c-3.357,0.499-5.734-0.521-8.375-2.821c-2.354-2.052-3.417-3.897-3.38-6.885
		c0.066-5.297-0.189-5-5.093-7.399c-8.106-3.967-16.95-6.514-24.099-12.39c-1.159-0.954-2.841-1.268-4.278-1.885
		c-0.9-0.387-1.816-0.745-2.685-1.195c-1.483-0.769-2.921-1.626-4.404-2.394c-0.633-0.327-1.562-0.328-1.966-0.807
		c-2.409-2.849-5.318-3.371-8.904-2.799c-1.428,0.228-3.107-1.022-4.651-1.651c-1.15-0.47-2.263-1.454-3.398-1.464
		c-4.329-0.039-8.542-0.339-12.691-1.834c-2.097-0.755-4.395-1.069-6.532,0.759c-1.501,1.283-3.604,1.359-5.179-0.122
		c-1.566-1.474-2.929-1.033-4.709-0.433c-5.601,1.884-11.252,3.652-16.964,5.161c-3.045,0.803-6.268,1.425-9.388,1.339
		c-4.938-0.136-8.989,1.873-12.933,4.292c-2.112,1.296-3.914,1.611-6.438,0.886c-3.691-1.061-7.601-1.414-11.438,0.038
		c-6.022,2.279-11.977,2.731-17.559-1.276c-1.377-0.989-2.583-0.938-3.918,0.12c-1.873,1.482-3.281,0.968-3.751-1.338
		c-0.309-1.517-0.928-2.107-2.521-2.331c-3.172-0.446-4.435-2.447-3.38-5.434c0.605-1.711,1.704-3.315,2.845-4.757
		c1.878-2.376,4.338-4.406,2.382-7.993c-0.274-0.502,0.51-1.913,1.159-2.529c2.818-2.68,5.764-5.227,8.679-7.803
		c0.316-0.28,0.749-0.645,1.108-0.625c4.518,0.243,7.667-2.871,11.46-4.405c3.522-1.424,7.564-1.606,11.398-2.203
		C2271.275,766.808,2273.592,766.709,2276.723,766.418z M2278.731,773.174c-0.204,0.189-1.311,0.736-1.553,1.543
		c-0.497,1.649,1.91,4.527,3.459,4.078c0.912-0.264,1.904-1.615,2.121-2.635C2283.244,773.872,2281.669,773.164,2278.731,773.174z
		 M2258.549,778.751c-1.194,0.24-2.14,0.22-2.835,0.627c-0.704,0.412-1.158,1.249-1.722,1.899c0.863,0.566,1.754,1.62,2.583,1.574
		c0.987-0.056,1.988-0.975,2.849-1.683c0.347-0.285,0.616-1.162,0.43-1.485C2259.569,779.194,2258.856,778.953,2258.549,778.751z"
		/>
	<path fill-rule="evenodd" clip-rule="evenodd" d="M2065.616,891.72c-1.774-0.469-3.052-1.035-4.35-1.086
		c-1.331-0.054-3.039-0.003-3.901,0.767c-0.594,0.531-0.299,2.448,0.076,3.589c0.673,2.044,1.758,3.949,2.576,5.95
		c2.952,7.218,1.509,14.165-1.377,21.009c-0.056,0.133-0.146,0.256-0.182,0.393c-1.562,6.02-5.585,8.321-11.606,7.982
		c-2.489-0.141-4.662,0.771-6.562,2.715c-3.924,4.018-11.325,4.498-15.799,0.917c-3.8-3.043-7.74-6.147-10.717-9.933
		c-5.742-7.303-5.016-15.599-2.064-23.86c0.629-1.762,1.718-3.374,2.22-5.16c0.312-1.11,0.368-3.017-0.268-3.496
		c-0.943-0.71-2.915-1.065-3.902-0.541c-5.822,3.092-12.019,5.517-16.854,10.365c-4.146,4.158-7.154,8.998-10.057,13.982
		c-1.134,1.949-1.915,4.226-4.948,4.158c-0.63-0.015-1.604,1.492-1.893,2.455c-1.052,3.518,1.423,10.007,4.519,11.925
		c1.957,1.212,4.082,2.151,6.111,3.249c2.12,1.147,4.147,2.493,6.345,3.459c1.662,0.731,3.541,1.432,5.297,1.371
		c2.161-0.076,3.768,0.624,5.647,1.507c2.1,0.986,4.656,1.049,7.032,1.38c1.53,0.212,3.421-0.279,3.888,1.835
		c0.461,2.096-0.632,3.589-2.401,4.649c-2.521,1.512-5.156,0.971-7.491-0.109c-2.753-1.273-4.674-0.843-6.319,1.593
		c-0.312,0.462-0.795,1.137-1.216,1.15c-5.908,0.185-11.055,4.246-17.258,3.169c-3.593-0.624-6.461-1.878-8.797-4.837
		c-2.502-3.171-4.915-6.146-6.279-10.161c-1.062-3.124-3.686-5.803-5.928-8.412c-1.525-1.775-2.459-3.591-2.216-5.856
		c0.616-5.724,1.345-11.435,2.03-17.15c4.559-4.764,2.933-11.443,5.238-16.975c2.235-5.361,5.098-9.991,9.683-13.538
		c2.17-1.678,4.243-3.5,6.532-4.995c1.18-0.771,3.718-1.654,3.955-1.313c1.271,1.826-0.631,2.683-1.79,3.647
		c-2.869,2.385-4.296,5.339-3.896,9.127c0.338,3.204,1.126,3.548,4.321,4.014c7.401,1.079,13.566-3.015,20.365-4.388
		c3.336-3.351,7.687-3.602,12.013-3.956c0.562-0.046,1.204-0.176,1.642-0.497c2.17-1.596,4.188-2.791,6.896-0.712
		c0.755,0.58,2.517,0.048,3.757-0.234c7.057-1.609,13.853-1.688,20.623,1.667c2.587,1.282,5.915,1.03,8.883,1.591
		C2060.309,884.713,2063.799,887.753,2065.616,891.72z M2038.142,912.491c2.207-0.135,4.113-2.507,3.846-4.643
		c-0.235-1.877-1.381-2.768-3.275-2.604c-1.98,0.171-3.625,2.193-3.362,4.261C2035.567,911.222,2036.36,912.503,2038.142,912.491z
		"/>
	<path fill-rule="evenodd" clip-rule="evenodd" d="M2179.93,1346.731c0.837-3.488,0.167-5.764-2.671-7.03
		c-1.764-0.788-1.905-2.425-1.827-4.052c0.19-3.981-1.576-7.113-3.723-10.332c-1.351-2.026-1.565-4.801-2.353-7.219
		c-0.293-0.898-0.583-2.241-1.205-2.467c-0.656-0.235-1.9,0.42-2.546,1.041c-1.553,1.49-2.884,3.207-4.349,4.793
		c-0.773,0.837-1.517,1.823-2.487,2.332c-1.762,0.922-3.132-0.2-2.863-2.214c0.094-0.705,0.606-1.398,0.56-2.072
		c-0.083-1.202-0.064-2.964-0.782-3.438c-0.992-0.653-2.741-0.707-3.964-0.343c-2.326,0.693-4.548,1.786-6.741,2.861
		c-2.115,1.038-3.899,0.764-5.476-0.939c-1.533-1.655-3.335-2.602-5.646-2.842c-1.038-0.108-2.362-0.769-2.922-1.604
		c-2.691-4.017-6.78-5.983-10.849-8.108c-0.687-0.359-1.23-1.896-1.085-2.765c0.367-2.201,2.942-3.777,5.488-3.988
		c1.987-0.165,4.055-0.309,5.899-0.977c2.251-0.814,2.508-2.782,0.664-4.359c-0.936-0.801-2.29-1.104-3.442-1.658
		c-2.33-1.121-4.813-2.026-6.918-3.479c-1.311-0.904-2.323-2.529-2.954-4.046c-0.629-1.512,0.19-2.859,1.918-3.237
		c0.976-0.215,2.007-0.267,3.01-0.242c8.085,0.193,16.019,1.456,23.733,3.854c6.547,2.035,13.17,2.795,20.009,2.336
		c2.404-0.161,4.872,0.316,7.286,0.672c4.015,0.591,7.812,0.639,11.869-0.672c4.864-1.572,9.879-3.111,15.201-2.816
		c1.644,0.091,3.358-0.563,4.997-1.029c7.027-1.996,14.027-4.093,21.062-6.062c2.905-0.814,4.422-3.06,5.972-5.308
		c3.094-4.484,6.132-9.006,9.241-13.479c0.287-0.414,1.111-0.937,1.349-0.804c0.535,0.299,1.206,0.977,1.207,1.501
		c0.011,2.728-0.313,5.459-0.241,8.181c0.052,1.928,0.192,4.001,0.953,5.717c0.699,1.577,0.598,2.545-0.309,3.907
		c-1.764,2.647-3.871,4.606-7.15,5.101c-0.979,0.147-1.964,0.536-2.845,1.004c-1.938,1.031-3.048,2.75-2.963,4.925
		c0.091,2.322,1.307,3.975,3.54,4.985c1.619,0.734,3.666,1.533,4.441,2.912c1.711,3.037-0.892,6.617-4.684,6.958
		c-1.431,0.128-2.881,0.284-4.306,0.185c-3.366-0.235-5.046,1.778-6.044,4.513c-0.888,2.43-1.476,4.97-2.194,7.462
		c-0.606,2.102-1.584,3.179-4.103,2.378c-1.52-0.482-3.312-0.133-4.979-0.101c-0.565,0.01-1.214,0.425-1.679,0.254
		c-2.927-1.071-4.658,0.14-6.962,2.119c-2.127,1.83-3.685,3.146-3.812,6.114c-0.111,2.597-1.896,3.361-3.263,1.44
		c-2.857-4.019-5.803-2.962-9.067-1.021c-0.61,0.361-1.478,0.645-1.729,1.193c-1.954,4.241-4.812,8.245-3.254,13.404
		C2185.01,1343.699,2184.622,1344.206,2179.93,1346.731z"/>
	<path fill-rule="evenodd" clip-rule="evenodd" d="M2364.414,860.475c2.851,1.231,4.571,3.124,5.536,5.55
		c2.093,5.26,4.945,10.032,8.507,14.412c3.025,3.722,2.788,8.052,2.03,12.378c-0.149,0.854-1.037,1.986-1.831,2.25
		c-4.22,1.405-5.964,5.226-8.476,8.293c-0.729,0.891-1.539,1.822-1.916,2.876c-1.926,5.394-6.01,6.353-11.038,5.689
		c-2.398-0.316-4.732-0.671-7.018,1.041c-0.837,0.627-2.749,0.112-4.062-0.261c-1.746-0.496-2.885-0.155-3.313,1.621
		c-0.729,3.009-2.867,3.869-5.562,3.567c-1.455-0.164-2.85-0.868-4.271-1.328c0.512-1.456,0.653-3.237,1.6-4.307
		c3.271-3.697,7.131-6.857,11.917-8.262c5.742-1.686,9.171-5.816,12.179-10.455c2.283-3.521,1.008-6.762-2.692-8.767
		c-1.706-0.925-3.267-2.384-4.466-3.933c-4.475-5.781-10.73-9.096-16.869-12.597c-0.366-0.208-0.818-0.28-1.239-0.373
		c-6.685-1.476-8.336,0.116-6.116,6.357c2.141,6.019,3.021,11.917,1.09,18.207c-2.277,7.414-7.287,12.715-12.945,17.477
		c-2.791,2.347-10.252,1.614-12.985-0.706c-2.437-2.069-4.537-2.05-6.829,0.061c-3.32,3.059-3.938,3.151-6.997,0.089
		c-5.166-5.173-8.949-11.295-11.669-18.054c-0.521-1.29-0.876-2.887-0.617-4.207c1.079-5.499,2.42-10.945,3.671-16.41
		c0.064-0.28,0.258-0.543,0.271-0.82c0.058-1.242,0.071-2.485,0.1-3.729c-1.334-0.002-2.724-0.25-3.996,0.03
		c-8.386,1.851-14.919,7.102-21.657,11.972c-0.826,0.597-1.78,1.018-3.208,0.896c0.369-0.715,0.629-1.52,1.126-2.131
		c5.582-6.857,11.391-13.426,20.656-15.325c3.093-0.634,6.225-1.134,9.258-1.983c1.896-0.531,3.597-1.727,5.468-2.391
		c1.841-0.653,3.777-1.365,5.688-1.417c3.298-0.089,6.61,0.274,9.912,0.519c5.031,0.372,10.092,0.582,15.075,1.304
		c2.681,0.388,5.136,0.554,7.566-0.699c2.272-1.17,4.322-1.028,6.444,0.567c2.396,1.801,5.164,2.364,8.201,1.854
		c1.836-0.309,3.739-0.226,5.613-0.291c2.373-0.083,4.008,0.356,4.525,3.334c0.53,3.056,6.256,5.951,9.136,4.788
		c1.282-0.517,2.26-2.051,3.099-3.308C2363.893,862.978,2364.008,861.788,2364.414,860.475z M2298.926,887.618
		c2.553-0.146,4.986-2.613,4.733-4.626c-0.217-1.725-1.114-2.959-3.128-2.821c-2.355,0.161-4.477,2.375-4.282,4.574
		C2296.409,886.562,2297.343,887.669,2298.926,887.618z"/>
	<path fill-rule="evenodd" clip-rule="evenodd" d="M2164.46,1060.352c1.455-1.248,2.727-2.881,4.397-3.682
		c8.259-3.957,17.008-5.577,26.063-3.897c6.225,1.155,12.327,2.969,18.479,4.509c0.835,0.209,1.883,0.314,2.404,0.869
		c0.808,0.863,1.696,2.076,1.687,3.133c-0.006,0.703-1.425,1.762-2.379,2.006c-1.938,0.496-3.982,0.62-5.993,0.77
		c-9.209,0.686-18.427,1.441-27.478-1.284c-5.021-1.512-10.077-2.54-15.327-1.163c-0.354,0.092-0.802-0.179-1.207-0.281
		C2164.891,1061.004,2164.675,1060.678,2164.46,1060.352z"/>
	<path fill-rule="evenodd" clip-rule="evenodd" d="M2103.147,1079.891c-5.274-0.799-6.817-1.777-8.188-6.836
		c-0.738-2.725-2.243-3.539-4.665-3.287c-1.985,0.206-3.943,0.684-5.919,1.006c-1.117,0.183-2.291,0.561-3.362,0.386
		c-3.032-0.495-3.856-2.537-1.98-4.935c0.961-1.228,2.118-2.585,3.49-3.161c8.43-3.545,17.602-5.712,25.048,1.435
		c2.489,2.391,5.21,4.539,7.701,6.928c0.643,0.615,1.37,2.109,1.084,2.52c-0.549,0.788-1.9,1.644-2.733,1.487
		c-2.522-0.474-3.981,0.829-5.717,2.245C2106.593,1078.75,2104.754,1079.177,2103.147,1079.891z"/>
	<path fill-rule="evenodd" clip-rule="evenodd" d="M2032.17,852.019c1.586-0.446,3.203-1.364,4.753-1.259
		c7.833,0.526,15.759,0.775,22.96,4.553c0.76,0.397,1.804,0.604,2.219,1.228c0.55,0.831,0.612,1.984,0.885,3
		c-0.908,0.115-1.904,0.529-2.71,0.292c-3.698-1.088-7.4-2.213-10.993-3.603c-3.576-1.384-7.229-1.618-10.989-1.652
		c-2.027-0.019-4.05-0.582-6.074-0.9C2032.203,853.125,2032.187,852.572,2032.17,852.019z"/>
	<path fill-rule="evenodd" clip-rule="evenodd" d="M2214.062,1357.805c-3.497-1.423-5.285-0.696-6.206,1.991
		c-0.179,0.524-1.196,1.234-1.595,1.109c-0.701-0.217-1.56-0.917-1.747-1.585c-0.34-1.207-0.294-2.537-0.302-3.817
		c-0.024-3.979-0.01-7.958,0.02-11.937c0.004-0.544,0.181-1.087,0.337-1.972c3.051,1.171,5.514,2.216,5.795,5.975
		c0.154,2.048,1.292,4.027,2.019,6.026C2212.785,1354.706,2213.255,1355.793,2214.062,1357.805z"/>
	<path fill-rule="evenodd" clip-rule="evenodd" d="M2250.484,849.57c-0.224,0.493-0.312,0.964-0.589,1.257
		c-2.836,3.008-5.646,6.047-8.618,8.915c-0.513,0.494-1.762,0.222-2.67,0.304c0.004-0.923-0.388-2.252,0.075-2.704
		c3.162-3.081,6.486-5.998,9.821-8.896c0.29-0.252,1.087-0.107,1.546,0.091C2250.31,848.648,2250.36,849.246,2250.484,849.57z"/>
	<path fill-rule="evenodd" clip-rule="evenodd" d="M2351.043,1222.195c-0.285,0.666-0.604,3.082-1.607,3.411
		c-2.341,0.767-1.972-2.229-3.121-3.297c-1.725-1.602-1.497-3.022-0.274-4.894c0.816-1.249,0.812-3.008,1.371-4.465
		c0.206-0.541,0.988-1.224,1.472-1.197c0.503,0.028,1.316,0.791,1.382,1.31
		C2350.605,1215.766,2350.751,1218.493,2351.043,1222.195z"/>
	<path fill-rule="evenodd" clip-rule="evenodd" d="M2229.964,781.797c-0.494-5.211,1.146-8.461,5.044-10.337
		c0.836-0.403,2.062,0.005,3.11,0.039c-0.113,1.185,0.225,2.803-0.421,3.474C2235.463,777.288,2232.886,779.274,2229.964,781.797z
		"/>
	<path fill-rule="evenodd" clip-rule="evenodd" d="M2155.79,1360.45c2.137,2.924,1.88,5.652,0.657,8.021
		c-0.521,1.012-2.557,1.327-3.973,1.695c-0.204,0.054-1.334-1.651-1.118-2.082
		C2152.609,1365.587,2154.136,1363.227,2155.79,1360.45z"/>
	<path fill-rule="evenodd" clip-rule="evenodd" d="M2310.889,1135.849c0.942-1.292-0.344-4.43,2.448-4.443
		c1.02-0.005,2.571,2.501,2.955,4.085c0.506,2.096-1.325,4.188-2.902,4.018C2311.418,1139.297,2310.764,1137.98,2310.889,1135.849
		z"/>
	<path fill-rule="evenodd" clip-rule="evenodd" d="M2148.258,1356.442c1.037-2.655,1.714-4.691,2.647-6.603
		c0.291-0.595,1.276-0.849,1.943-1.259c0.265,0.71,0.913,1.546,0.728,2.107
		C2152.783,1353.093,2152.081,1355.708,2148.258,1356.442z"/>
	<path fill-rule="evenodd" clip-rule="evenodd" d="M2186.009,1354.002c-1.212,0.976-1.952,2.017-2.776,2.088
		c-0.612,0.052-1.335-1.15-2.008-1.795c0.782-0.619,1.489-1.457,2.379-1.764
		C2184.035,1352.384,2184.809,1353.232,2186.009,1354.002z"/>
	<path fill-rule="evenodd" clip-rule="evenodd" d="M2213.788,1369.394c-0.849,0.929-1.381,1.51-1.911,2.091
		c-0.568-0.977-1.318-1.905-1.608-2.959c-0.107-0.39,0.868-1.077,1.351-1.63C2212.3,1367.68,2212.98,1368.464,2213.788,1369.394z"
		/>
	<path fill-rule="evenodd" clip-rule="evenodd" d="M2316.08,1222.288c0.09,1.362,0.18,2.726,0.32,4.866
		C2314.13,1224.727,2314.13,1224.727,2316.08,1222.288z"/>
	<path fill-rule="evenodd" clip-rule="evenodd" d="M2544.038,1376.216c1.357-2.204,2.478-4.109,3.727-5.926
		c0.143-0.207,1.467,0.071,1.468,0.143c0.05,2.057,0.001,4.114-0.04,6.173c-0.003,0.138-0.043,0.308-0.13,0.404
		c-0.791,0.879-1.596,1.744-2.396,2.613C2545.886,1378.611,2545.104,1377.599,2544.038,1376.216z"/>
	<path fill-rule="evenodd" clip-rule="evenodd" d="M2540.579,1290.843c-0.291,1.497-0.442,2.929-0.891,4.26
		c-0.181,0.536-1.006,1.168-1.551,1.181c-0.535,0.012-1.578-0.74-1.554-1.1c0.192-2.78,0.589-5.547,0.923-8.317
		c0.714,0.106,1.877-0.006,2.057,0.362C2540.109,1288.339,2540.271,1289.637,2540.579,1290.843z"/>
	<path fill-rule="evenodd" clip-rule="evenodd" d="M2185.566,1517.268c-1.999,0.965-3.212,1.856-4.546,2.108
		c-1.335,0.252-3-0.619-2.454-2.081c0.505-1.352,2.016-2.626,3.39-3.2C2182.479,1513.877,2183.856,1515.712,2185.566,1517.268z"/>
	<path fill-rule="evenodd" clip-rule="evenodd" d="M2486.824,1309.669c1.299,1.189,2.281,2.09,3.264,2.989
		c-0.623,0.449-1.404,1.389-1.837,1.248c-1.07-0.347-2.029-1.135-2.891-1.904
		C2485.268,1311.92,2486.111,1310.79,2486.824,1309.669z"/>
	<path fill-rule="evenodd" clip-rule="evenodd" d="M2174.604,1219.288c-4.475,1.363-8.947,2.732-13.428,4.081
		c-0.544,0.163-1.241,0.458-1.664,0.26c-1.036-0.489-2.435-1.029-2.809-1.918c-0.587-1.396,0.519-2.39,1.978-2.68
		c0.837-0.166,1.703-0.263,2.557-0.268c4.406-0.025,8.812-0.012,13.218-0.012
		C2174.505,1218.93,2174.555,1219.109,2174.604,1219.288z"/>
	<path fill-rule="evenodd" clip-rule="evenodd" d="M3135.055,1553.963C3307.28,1657,3327.28,1806.018,3335.28,2003.509
		s0,181.491,0,181.491l-468-160"/>
</g>
</svg>
